<svg xmlns="http://www.w3.org/2000/svg" viewBox="0 0 500 500" role="img" aria-label="DSA Buddy logo">
<g transform="translate(0.000000,500.000000) scale(0.100000,-0.100000)"
fill="#0b2035" stroke="none">
<path d="M2225 4531 c-82 -48 -211 -123 -285 -166 -74 -43 -220 -128 -325
-188 -104 -61 -246 -143 -315 -182 -69 -40 -206 -119 -305 -176 l-180 -104 -3
-967 -2 -967 92 -54 c51 -30 197 -115 323 -187 127 -73 282 -163 345 -200 461
-270 620 -359 632 -354 7 3 52 53 101 112 l87 106 -2 975 -3 975 -115 66 c-63
37 -203 118 -310 180 -107 62 -251 145 -320 185 -262 151 -256 147 -244 178 5
15 -14 3 294 182 140 81 329 190 420 243 91 52 190 109 220 127 l55 31 3 137
c1 75 -1 137 -5 136 -4 0 -75 -40 -158 -88z m-1042 -960 c56 -32 188 -108 292
-168 105 -61 273 -158 375 -217 101 -58 188 -112 192 -119 4 -6 8 -389 8 -849
0 -835 0 -837 -21 -848 -21 -12 -27 -8 -544 293 -66 38 -192 111 -280 162
l-160 92 -3 844 c-2 785 -1 845 15 857 9 6 18 12 20 12 2 0 49 -26 106 -59z
M2586 4613 c-3 -4 -6 -64 -6 -133 l0 -128 108 -62 c59 -35 148 -86 197 -115
50 -29 137 -80 195 -114 58 -33 193 -111 300 -173 146 -85 196 -118 198 -134
4 -25 -10 -34 -263 -179 -93 -54 -264 -153 -380 -220 -115 -67 -226 -132 -245
-142 -19 -11 -52 -30 -72 -43 l-38 -22 0 -970 0 -971 75 -91 c98 -120 112
-136 120 -136 3 0 93 50 198 112 106 61 206 119 222 128 17 9 68 40 115 67 82
49 107 63 195 113 22 12 74 42 115 66 41 24 179 104 305 178 l230 133 0 384 0
384 -87 53 c-67 41 -88 59 -88 76 0 11 39 80 88 151 l87 130 0 380 0 379 -75
45 c-70 41 -258 150 -1100 635 -179 103 -339 196 -357 206 -17 10 -34 16 -37
13z m1258 -1049 c3 -9 6 -147 6 -308 l0 -292 -67 -99 -68 -98 -155 -90 c-85
-50 -184 -107 -220 -127 -36 -20 -132 -76 -214 -123 -82 -48 -157 -87 -166
-87 -39 0 -40 16 -38 380 l3 352 210 122 c116 67 291 169 390 225 99 57 200
116 225 132 51 31 85 36 94 13z m-171 -1140 c18 -10 65 -39 105 -66 l72 -49 0
-219 0 -218 -207 -120 c-115 -65 -315 -181 -447 -257 -188 -109 -242 -136
-255 -128 -14 9 -16 48 -19 336 l-2 325 82 50 c46 27 157 92 248 144 91 53
212 123 270 156 58 34 109 61 113 62 4 0 22 -7 40 -16z"/>
</g>
<g transform="translate(0.000000,500.000000) scale(0.100000,-0.100000)"
fill="#22d3ee" stroke="none">
<path d="M2230 4613 c-118 -69 -395 -229 -615 -355 -220 -126 -456 -262 -525
-303 -69 -40 -174 -102 -235 -137 l-110 -64 -3 -1006 -2 -1007 92 -54 c113
-66 478 -278 683 -397 83 -48 268 -155 412 -238 144 -84 268 -155 276 -158 9
-3 55 43 136 140 l121 145 -2 1007 -3 1007 -140 82 c-295 172 -535 311 -668
388 -76 43 -136 84 -134 90 3 10 53 40 620 369 l327 190 0 214 c0 118 -3 214
-7 214 -5 0 -105 -57 -223 -127z m158 -130 l-3 -137 -55 -31 c-30 -18 -129
-75 -220 -127 -91 -53 -280 -162 -420 -243 -308 -179 -289 -167 -294 -182 -12
-31 -18 -27 244 -178 69 -40 213 -123 320 -185 107 -62 247 -143 310 -180
l115 -66 3 -975 2 -975 -87 -106 c-49 -59 -94 -109 -101 -112 -12 -5 -171 84
-632 354 -63 37 -218 127 -345 200 -126 72 -272 157 -323 187 l-92 54 2 967 3
967 180 104 c99 57 236 136 305 176 69 39 211 121 315 182 105 60 251 145 325
188 74 43 203 118 285 166 83 48 154 88 158 88 4 1 6 -61 5 -136z M1057 3618
c-16 -12 -17 -72 -15 -857 l3 -844 160 -92 c88 -51 214 -124 280 -162 517
-301 523 -305 544 -293 21 11 21 13 21 848 0 460 -4 843 -8 849 -4 7 -91 61
-192 119 -102 59 -270 156 -375 217 -264 152 -394 227 -398 227 -2 0 -11 -6
-20 -12z m463 -323 c206 -119 393 -228 415 -240 l40 -23 3 -782 c2 -756 2
-782 -16 -778 -16 5 -309 172 -724 416 l-128 74 0 780 c0 738 1 780 18 776 9
-3 186 -103 392 -223z M1300 2919 c-58 -32 -109 -60 -113 -62 -5 -1 35 -71 88
-155 l96 -152 30 15 c35 19 35 23 6 66 -68 102 -108 172 -104 183 3 7 39 31
81 52 42 21 76 43 76 47 0 18 -31 67 -43 66 -6 -1 -59 -27 -117 -60z M1637
2868 c-102 -245 -255 -644 -249 -649 25 -25 38 -1 153 281 149 363 147 359
128 371 -19 12 -26 11 -32 -3z M1668 2542 c-16 -9 -28 -20 -28 -25 0 -4 29
-54 65 -109 36 -56 65 -107 65 -113 0 -6 -36 -30 -80 -54 -44 -23 -80 -45 -80
-47 0 -11 31 -64 38 -64 18 -2 232 116 232 127 0 7 -28 56 -63 110 -34 54 -75
119 -90 146 -15 26 -29 47 -30 47 -1 0 -14 -8 -29 -18z M2510 4532 c0 -186 2
-211 18 -224 22 -20 99 -66 457 -273 160 -92 332 -192 383 -222 51 -30 92 -59
90 -65 -2 -6 -168 -106 -369 -222 -201 -116 -413 -239 -472 -274 l-107 -64 0
-1002 0 -1002 23 -30 c79 -107 221 -264 233 -260 12 5 339 194 1209 699 132
76 243 144 247 151 4 6 7 198 5 426 l-2 414 -75 47 c-41 25 -76 52 -78 60 -1
8 34 68 78 133 l80 120 -2 405 -3 406 -110 64 c-60 35 -166 96 -235 136 -69
40 -210 121 -315 182 -266 154 -494 285 -750 433 -121 70 -236 137 -255 149
-19 11 -38 21 -42 21 -5 0 -8 -94 -8 -208z m470 -138 c842 -485 1030 -594
1100 -635 l75 -45 0 -379 0 -380 -87 -130 c-49 -71 -88 -140 -88 -151 0 -17
21 -35 88 -76 l87 -53 0 -384 0 -384 -230 -133 c-126 -74 -264 -154 -305 -178
-41 -24 -93 -54 -115 -66 -88 -50 -113 -64 -195 -113 -47 -27 -98 -58 -115
-67 -16 -9 -116 -67 -222 -128 -105 -62 -195 -112 -198 -112 -8 0 -22 16 -120
136 l-75 91 0 971 0 970 38 22 c20 13 53 32 72 43 19 10 130 75 245 142 116
67 287 166 380 220 253 145 267 154 263 179 -2 16 -52 49 -198 134 -107 62
-242 140 -300 173 -58 34 -145 85 -195 114 -49 29 -138 80 -197 115 l-108 62
0 128 c0 69 3 129 6 133 3 3 20 -3 37 -13 18 -10 178 -103 357 -206z M3750
3551 c-25 -16 -126 -75 -225 -132 -99 -56 -274 -158 -390 -225 l-210 -122 -3
-352 c-2 -364 -1 -380 38 -380 9 0 84 39 166 87 82 47 178 103 214 123 36 20
135 77 220 127 l155 90 68 98 67 99 0 292 c0 161 -3 299 -6 308 -9 23 -43 18
-94 -13z m-26 -647 l-56 -81 -176 -103 c-361 -211 -482 -280 -492 -280 -7 0
-9 98 -8 296 l3 295 330 193 c182 106 357 207 390 224 l60 32 3 -247 2 -247
-56 -82z M3520 2378 c-58 -33 -179 -103 -270 -156 -91 -52 -202 -117 -248
-144 l-82 -50 2 -325 c3 -288 5 -327 19 -336 13 -8 67 19 255 128 132 76 332
192 447 257 l207 120 0 218 0 219 -72 49 c-76 51 -131 82 -145 82 -4 -1 -55
-28 -113 -62z m191 -60 l69 -43 0 -181 0 -181 -383 -221 c-211 -122 -389 -222
-395 -222 -9 0 -12 64 -10 262 l3 261 215 125 c118 69 260 151 315 183 55 32
104 59 109 59 5 0 40 -19 77 -42z M760 490 l0 -140 26 -6 c14 -4 71 -4 127 -2
135 7 140 13 135 154 -2 67 -8 107 -17 117 -11 14 -35 17 -142 17 l-129 0 0
-140z m222 70 c2 -5 2 -41 0 -80 l-4 -70 -74 0 -74 0 0 80 0 80 74 0 c41 0 76
-4 78 -10z M1266 614 c-34 -34 -32 -125 4 -144 10 -5 57 -10 104 -10 85 0 86
0 86 -25 0 -24 -2 -25 -75 -25 -43 0 -75 4 -75 10 0 6 -16 10 -35 10 -41 0
-47 -23 -16 -61 17 -22 28 -24 118 -27 88 -3 101 -2 126 18 23 19 27 29 27 75
0 74 -17 85 -133 85 -86 0 -88 1 -85 23 3 20 9 22 72 25 54 2 71 0 80 -13 7
-10 22 -15 37 -13 30 4 38 42 13 69 -15 16 -31 19 -125 19 -84 0 -111 -3 -123
-16z M1748 613 c-11 -13 -17 -51 -22 -126 -7 -119 1 -150 37 -145 19 3 22 10
25 51 l3 48 77 -3 77 -3 5 -45 c4 -40 8 -45 30 -45 l25 0 3 124 c4 163 5 161
-138 161 -89 0 -109 -3 -122 -17z m197 -54 c4 -5 4 -21 1 -35 -6 -23 -10 -24
-81 -24 l-75 0 0 28 c0 16 3 32 7 35 11 11 141 8 148 -4z M2510 490 l0 -140
24 -6 c14 -3 73 -4 131 -2 138 4 139 6 130 138 -3 52 -12 106 -18 120 -12 24
-15 25 -140 28 l-127 3 0 -141z m210 55 c0 -24 -2 -25 -70 -25 -68 0 -70 1
-70 25 0 24 2 25 70 25 68 0 70 -1 70 -25z m10 -110 c0 -24 -2 -25 -75 -25
-73 0 -75 1 -75 25 0 24 2 25 75 25 73 0 75 -1 75 -25z M2880 506 c0 -166 6
-171 166 -165 67 3 88 8 98 21 15 20 29 193 19 238 -4 25 -10 30 -34 30 l-28
0 -3 -107 -3 -108 -75 0 -75 0 -3 108 -3 107 -29 0 -30 0 0 -124z M3240 490
l0 -140 24 -6 c14 -3 71 -4 126 -2 134 4 140 10 140 147 0 142 1 141 -161 141
l-129 0 0 -140z m220 0 l0 -80 -75 0 -75 0 0 80 0 80 75 0 75 0 0 -80z M3612
488 l3 -143 95 -3 c136 -4 158 1 177 46 22 52 15 192 -11 221 -17 19 -30 21
-143 21 l-124 0 3 -142z m213 2 l0 -75 -75 0 -75 0 -3 64 c-4 92 -4 92 80 89
l73 -3 0 -75z M3950 624 c0 -3 27 -41 60 -84 47 -62 60 -86 60 -114 0 -56 16
-88 43 -84 19 3 23 10 27 58 6 62 5 60 77 154 29 37 53 70 53 72 0 2 -18 4
-39 4 -35 0 -43 -5 -77 -50 -21 -27 -41 -50 -45 -50 -4 0 -25 22 -46 50 -33
43 -43 49 -75 50 -21 0 -38 -3 -38 -6z"/>
</g>
</svg>
